<svg width="28" height="28" viewBox="0 0 28 28" fill="none" xmlns="http://www.w3.org/2000/svg">
<path d="M13.2929 16.7929C12.9024 17.1834 12.9024 17.8166 13.2929 18.2071C13.6834 18.5976 14.3166 18.5976 14.7071 18.2071L13.2929 16.7929ZM17.5 14L18.2071 14.7071C18.3946 14.5196 18.5 14.2652 18.5 14C18.5 13.7348 18.3946 13.4804 18.2071 13.2929L17.5 14ZM14.7071 9.79289C14.3166 9.40237 13.6834 9.40237 13.2929 9.79289C12.9024 10.1834 12.9024 10.8166 13.2929 11.2071L14.7071 9.79289ZM4.66667 13C4.11439 13 3.66667 13.4477 3.66667 14C3.66667 14.5523 4.11439 15 4.66667 15L4.66667 13ZM14.7071 18.2071L18.2071 14.7071L16.7929 13.2929L13.2929 16.7929L14.7071 18.2071ZM18.2071 13.2929L14.7071 9.79289L13.2929 11.2071L16.7929 14.7071L18.2071 13.2929ZM4.66667 15L17.5 15V13L4.66667 13L4.66667 15Z" fill="white"/>
<path d="M10.5 8.16666V5.83332C10.5 5.18899 11.0223 4.66666 11.6667 4.66666H22.1667C22.811 4.66666 23.3333 5.18899 23.3333 5.83332V22.1667C23.3333 22.811 22.811 23.3333 22.1667 23.3333H11.6667C11.0223 23.3333 10.5 22.811 10.5 22.1667V19.8333" stroke="white" stroke-width="2" stroke-linecap="round" stroke-linejoin="round"/>
</svg>
